<!-- Generated by IcoMoon.io -->
<svg version="1.1" xmlns="http://www.w3.org/2000/svg" width="24" height="32" viewBox="0 0 24 32">
<title>icon</title>
<path d="M10.772 8.184c-0.154 0.015-0.39 0.047-0.586 0.080-0.022 0.004-0.056 0.009-0.074 0.012s-0.034 0.007-0.034 0.008c0 0.001-0.015 0.005-0.034 0.008-0.019 0.001-0.050 0.007-0.072 0.011-0.020 0.004-0.051 0.011-0.070 0.015-0.019 0.003-0.047 0.008-0.065 0.011-0.129 0.022-0.153 0.027-0.165 0.034-0.014 0.008-0.023 0.011-0.081 0.023-0.015 0.003-0.041 0.008-0.057 0.012-0.018 0.004-0.042 0.011-0.054 0.014-0.014 0.003-0.054 0.015-0.092 0.026-0.037 0.012-0.187 0.056-0.332 0.097-0.345 0.1-0.62 0.195-0.805 0.279-0.037 0.016-0.070 0.031-0.074 0.033-0.004 0-0.053 0.023-0.108 0.049-0.056 0.027-0.214 0.102-0.352 0.166s-0.31 0.153-0.382 0.195c-0.445 0.26-0.644 0.389-0.897 0.577-0.074 0.056-0.169 0.123-0.21 0.152-0.12 0.081-0.613 0.51-0.824 0.716-0.191 0.187-0.495 0.514-0.522 0.562-0.007 0.014-0.047 0.062-0.089 0.11-0.165 0.187-0.556 0.73-0.705 0.977-0.246 0.41-0.36 0.624-0.497 0.93-0.038 0.085-0.080 0.173-0.091 0.196-0.073 0.137-0.252 0.601-0.317 0.826-0.024 0.081-0.070 0.237-0.104 0.344-0.033 0.108-0.066 0.227-0.074 0.264-0.008 0.038-0.020 0.077-0.027 0.085-0.008 0.009-0.011 0.018-0.007 0.018s0 0.020-0.011 0.043c-0.022 0.053-0.112 0.453-0.12 0.532-0.003 0.030-0.008 0.064-0.012 0.074-0.011 0.027-0.038 0.184-0.035 0.199 0.001 0.005-0.001 0.020-0.005 0.031-0.011 0.026-0.058 0.407-0.077 0.609-0.018 0.202-0.018 1.341 0 1.543 0.019 0.202 0.066 0.583 0.077 0.609 0.004 0.011 0.007 0.026 0.005 0.031-0.003 0.015 0.024 0.172 0.035 0.199 0.004 0.011 0.009 0.045 0.012 0.074 0.008 0.080 0.1 0.481 0.122 0.533 0.011 0.026 0.028 0.083 0.039 0.129 0.033 0.13 0.153 0.529 0.206 0.678 0.099 0.284 0.135 0.371 0.268 0.65 0.042 0.089 0.099 0.208 0.125 0.264 0.119 0.256 0.156 0.324 0.326 0.609 0.231 0.387 0.46 0.726 0.577 0.857 0.012 0.012 0.022 0.030 0.022 0.037 0 0.008 0.009 0.018 0.020 0.022 0.011 0.005 0.020 0.016 0.020 0.026s0.009 0.020 0.020 0.026c0.011 0.004 0.020 0.014 0.020 0.022 0 0.019 0.146 0.203 0.161 0.203 0.005 0 0.018 0.014 0.026 0.030 0.019 0.042 0.28 0.332 0.474 0.529 0.144 0.145 0.422 0.403 0.564 0.523 0.030 0.024 0.085 0.070 0.122 0.103 0.095 0.083 0.264 0.214 0.264 0.204 0-0.004 0.011 0.001 0.024 0.014 0.012 0.012 0.091 0.070 0.172 0.13 0.437 0.318 0.956 0.623 1.401 0.824 0.085 0.038 0.196 0.089 0.246 0.115 0.271 0.134 0.803 0.319 1.222 0.425 0.038 0.009 0.074 0.023 0.083 0.028 0.008 0.007 0.019 0.008 0.023 0.003 0.005-0.004 0.018-0.001 0.027 0.007 0.026 0.022 0.62 0.156 0.658 0.149 0.004-0.001 0.018 0.003 0.028 0.007 0.033 0.015 0.478 0.074 0.709 0.097 0.302 0.028 1.366 0.028 1.668 0 0.231-0.023 0.677-0.083 0.709-0.097 0.011-0.004 0.024-0.008 0.030-0.007 0.034 0.007 0.632-0.129 0.656-0.149 0.009-0.008 0.022-0.011 0.027-0.007 0.004 0.005 0.015 0.004 0.023-0.003 0.008-0.005 0.046-0.019 0.083-0.028 0.421-0.106 0.953-0.291 1.22-0.424 0.051-0.026 0.164-0.078 0.249-0.116 0.445-0.202 0.964-0.506 1.401-0.824 0.083-0.060 0.16-0.118 0.173-0.13 0.012-0.012 0.023-0.018 0.023-0.014 0 0.009 0.169-0.122 0.264-0.204 0.038-0.032 0.092-0.078 0.122-0.103 0.142-0.119 0.421-0.378 0.564-0.523 0.194-0.198 0.455-0.487 0.474-0.529 0.008-0.016 0.020-0.030 0.026-0.030 0.015 0 0.161-0.184 0.161-0.203 0-0.008 0.009-0.018 0.020-0.022 0.011-0.005 0.020-0.016 0.020-0.026s0.009-0.020 0.020-0.026c0.011-0.004 0.020-0.014 0.020-0.022 0-0.007 0.009-0.024 0.022-0.038 0.102-0.112 0.363-0.495 0.525-0.767 0.057-0.097 0.13-0.215 0.16-0.264 0.049-0.080 0.107-0.195 0.225-0.447 0.022-0.049 0.076-0.161 0.118-0.25 0.196-0.41 0.286-0.661 0.481-1.347 0.088-0.309 0.171-0.673 0.156-0.688-0.004-0.004-0.001-0.014 0.005-0.022 0.011-0.015 0.045-0.185 0.041-0.207-0.001-0.005 0.001-0.020 0.005-0.031 0.011-0.026 0.058-0.407 0.077-0.609 0.018-0.202 0.018-1.341 0-1.543-0.019-0.202-0.066-0.583-0.077-0.609-0.004-0.011-0.007-0.026-0.005-0.031 0.003-0.015-0.024-0.172-0.035-0.199-0.004-0.011-0.009-0.045-0.012-0.074-0.007-0.069-0.097-0.471-0.116-0.518-0.007-0.020-0.034-0.11-0.058-0.199-0.185-0.667-0.418-1.289-0.623-1.661-0.011-0.019-0.020-0.043-0.020-0.053 0-0.020-0.135-0.291-0.189-0.378-0.020-0.034-0.099-0.165-0.173-0.291-0.074-0.127-0.188-0.305-0.252-0.397s-0.116-0.169-0.116-0.173c0-0.018-0.375-0.494-0.527-0.669-0.368-0.424-1.034-1.052-1.34-1.264-0.045-0.030-0.142-0.102-0.218-0.157-0.23-0.169-0.318-0.227-0.616-0.407-0.356-0.214-0.468-0.275-0.822-0.437-0.548-0.253-0.931-0.391-1.425-0.517-0.051-0.012-0.1-0.028-0.108-0.033-0.022-0.016-0.36-0.095-0.494-0.116-0.026-0.004-0.061-0.009-0.077-0.014-0.068-0.014-0.107-0.022-0.142-0.027-0.022-0.004-0.054-0.009-0.074-0.014-0.166-0.028-0.425-0.062-0.605-0.080-0.283-0.027-1.4-0.026-1.676 0.001zM12.25 9.098c0.268 0.016 0.494 0.046 0.803 0.106 0.042 0.008 0.11 0.020 0.149 0.028 0.038 0.007 0.168 0.038 0.287 0.068 0.119 0.031 0.238 0.061 0.264 0.066 0.026 0.007 0.133 0.039 0.237 0.074 0.104 0.034 0.195 0.062 0.202 0.062 0.022 0 0.348 0.123 0.451 0.171 0.023 0.011 0.046 0.019 0.051 0.019s0.111 0.049 0.233 0.108c0.122 0.060 0.226 0.108 0.231 0.108 0.012 0 0.218 0.104 0.24 0.12 0.007 0.007 0.069 0.041 0.135 0.074 0.068 0.035 0.141 0.079 0.162 0.096 0.023 0.016 0.088 0.056 0.143 0.085 0.12 0.064 0.267 0.162 0.483 0.325 0.087 0.065 0.192 0.141 0.233 0.169 0.041 0.027 0.096 0.070 0.122 0.097 0.026 0.026 0.051 0.047 0.060 0.047 0.007 0 0.049 0.033 0.092 0.070 0.131 0.119 0.83 0.824 0.839 0.849 0.004 0.012 0.042 0.056 0.084 0.096s0.076 0.079 0.076 0.085c0 0.007 0.035 0.058 0.078 0.115 0.114 0.152 0.154 0.206 0.195 0.267 0.019 0.030 0.072 0.106 0.116 0.169 0.080 0.112 0.298 0.462 0.43 0.69 0.089 0.153 0.409 0.805 0.452 0.92 0.009 0.026 0.023 0.053 0.030 0.060 0.005 0.008 0.011 0.022 0.011 0.031s0.012 0.043 0.026 0.076c0.030 0.064 0.072 0.187 0.096 0.284 0.009 0.035 0.023 0.068 0.028 0.072 0.007 0.004 0.012 0.027 0.012 0.051 0 0.026 0.011 0.069 0.023 0.097 0.012 0.030 0.032 0.089 0.046 0.134 0.012 0.045 0.037 0.127 0.053 0.183 0.041 0.139 0.054 0.199 0.066 0.277 0.007 0.037 0.031 0.162 0.055 0.277 0.103 0.498 0.119 0.701 0.119 1.496 0 0.753-0.023 1.053-0.116 1.496-0.008 0.034-0.024 0.112-0.037 0.176s-0.028 0.137-0.034 0.162c-0.007 0.026-0.019 0.077-0.028 0.115-0.008 0.037-0.027 0.107-0.042 0.156-0.014 0.049-0.038 0.13-0.053 0.183-0.054 0.185-0.189 0.597-0.217 0.652-0.014 0.032-0.026 0.064-0.026 0.072s-0.005 0.024-0.012 0.038c-0.008 0.012-0.031 0.062-0.053 0.111-0.023 0.049-0.065 0.141-0.096 0.206-0.031 0.064-0.055 0.123-0.055 0.131 0 0.007-0.018 0.045-0.041 0.083-0.022 0.038-0.041 0.074-0.041 0.080 0 0.015-0.119 0.245-0.141 0.272-0.008 0.011-0.024 0.038-0.035 0.061-0.011 0.022-0.035 0.065-0.053 0.095-0.019 0.030-0.046 0.076-0.060 0.102-0.015 0.026-0.038 0.060-0.051 0.076-0.015 0.016-0.045 0.062-0.065 0.103-0.022 0.042-0.061 0.104-0.088 0.141s-0.076 0.106-0.11 0.154c-0.034 0.049-0.083 0.115-0.108 0.149s-0.062 0.083-0.081 0.108c-0.019 0.026-0.055 0.074-0.081 0.108s-0.058 0.077-0.072 0.097c-0.014 0.022-0.058 0.074-0.099 0.119-0.135 0.152-0.749 0.778-0.801 0.819-0.028 0.022-0.083 0.069-0.12 0.104-0.038 0.037-0.074 0.065-0.081 0.065s-0.045 0.030-0.083 0.065c-0.039 0.037-0.104 0.088-0.145 0.116-0.076 0.050-0.133 0.093-0.244 0.177-0.116 0.088-0.359 0.248-0.453 0.298-0.051 0.027-0.107 0.061-0.122 0.074s-0.087 0.055-0.16 0.092c-0.073 0.038-0.139 0.073-0.149 0.081-0.026 0.022-0.2 0.111-0.215 0.111-0.007 0-0.112 0.047-0.231 0.107-0.12 0.058-0.241 0.114-0.267 0.123s-0.053 0.023-0.061 0.030c-0.007 0.005-0.020 0.011-0.030 0.011s-0.043 0.012-0.076 0.026c-0.074 0.035-0.543 0.191-0.571 0.191-0.012 0-0.047 0.012-0.077 0.027-0.031 0.015-0.072 0.027-0.091 0.027s-0.062 0.011-0.096 0.022c-0.034 0.012-0.085 0.028-0.115 0.035-0.053 0.012-0.111 0.026-0.217 0.053-0.030 0.008-0.088 0.019-0.129 0.027-0.041 0.007-0.102 0.018-0.135 0.024-0.498 0.102-0.743 0.12-1.509 0.12-0.635 0-0.919-0.015-1.205-0.062-0.13-0.023-0.481-0.095-0.566-0.118-0.043-0.011-0.093-0.020-0.112-0.020-0.033 0-0.112-0.022-0.298-0.081-0.046-0.015-0.092-0.027-0.103-0.027s-0.045-0.012-0.076-0.027c-0.030-0.015-0.072-0.027-0.092-0.027-0.035 0-0.244-0.065-0.324-0.102-0.022-0.009-0.070-0.028-0.108-0.041-0.037-0.012-0.093-0.034-0.125-0.049-0.033-0.014-0.062-0.026-0.068-0.026-0.007 0-0.072-0.030-0.146-0.068-0.074-0.037-0.142-0.068-0.15-0.068-0.018 0-0.57-0.277-0.596-0.299-0.009-0.008-0.054-0.034-0.096-0.055-0.043-0.022-0.088-0.049-0.1-0.060-0.011-0.011-0.026-0.019-0.031-0.019-0.007 0-0.038-0.019-0.072-0.041-0.032-0.023-0.062-0.041-0.066-0.041s-0.066-0.039-0.138-0.088c-0.118-0.080-0.171-0.118-0.357-0.26-0.027-0.020-0.093-0.069-0.146-0.106-0.053-0.038-0.134-0.099-0.18-0.138s-0.126-0.106-0.176-0.149c-0.221-0.187-0.884-0.88-0.988-1.033-0.012-0.019-0.045-0.061-0.070-0.095s-0.062-0.083-0.081-0.108c-0.019-0.026-0.056-0.074-0.081-0.108-0.049-0.064-0.112-0.15-0.135-0.188-0.008-0.012-0.042-0.065-0.079-0.119-0.035-0.054-0.064-0.1-0.064-0.106 0-0.004-0.022-0.038-0.049-0.076-0.027-0.039-0.065-0.102-0.085-0.139s-0.053-0.095-0.073-0.126c-0.020-0.032-0.037-0.061-0.037-0.064 0-0.004-0.015-0.030-0.034-0.057-0.030-0.043-0.084-0.152-0.115-0.229-0.007-0.015-0.060-0.127-0.119-0.25s-0.116-0.245-0.126-0.271c-0.008-0.026-0.022-0.053-0.028-0.060-0.005-0.008-0.011-0.022-0.011-0.031 0-0.011-0.012-0.045-0.027-0.074-0.015-0.031-0.027-0.061-0.027-0.068s-0.012-0.037-0.026-0.069c-0.027-0.057-0.123-0.348-0.149-0.449-0.007-0.030-0.033-0.118-0.055-0.196s-0.049-0.165-0.055-0.194c-0.007-0.027-0.018-0.074-0.026-0.104-0.007-0.030-0.019-0.077-0.026-0.106-0.028-0.111-0.112-0.575-0.125-0.682-0.008-0.061-0.020-0.161-0.028-0.221-0.019-0.143-0.019-1.596 0-1.76 0.037-0.309 0.054-0.416 0.095-0.616 0.015-0.070 0.038-0.18 0.050-0.244 0.026-0.129 0.039-0.187 0.074-0.305 0.014-0.045 0.038-0.127 0.054-0.183 0.069-0.242 0.207-0.647 0.252-0.742 0.027-0.057 0.066-0.149 0.088-0.204 0.039-0.099 0.23-0.498 0.313-0.658 0.023-0.045 0.062-0.119 0.085-0.165 0.024-0.047 0.050-0.092 0.057-0.102 0.008-0.009 0.031-0.051 0.053-0.092s0.058-0.103 0.083-0.138c0.024-0.035 0.045-0.069 0.045-0.073 0-0.014 0.203-0.315 0.271-0.402 0.034-0.043 0.068-0.089 0.074-0.103 0.024-0.042 0.173-0.237 0.229-0.302 0.031-0.034 0.119-0.137 0.198-0.227 0.168-0.194 0.59-0.621 0.732-0.742 0.056-0.046 0.138-0.118 0.185-0.158s0.097-0.077 0.112-0.081c0.014-0.005 0.026-0.014 0.026-0.020 0-0.005 0.026-0.028 0.058-0.050 0.104-0.069 0.242-0.172 0.3-0.225 0.031-0.027 0.061-0.050 0.065-0.050s0.037-0.020 0.072-0.045c0.034-0.023 0.072-0.050 0.085-0.057 0.012-0.008 0.047-0.030 0.080-0.051 0.032-0.020 0.061-0.037 0.066-0.037 0.004 0 0.034-0.019 0.068-0.041 0.032-0.023 0.062-0.041 0.066-0.041 0.003 0 0.047-0.026 0.097-0.057 0.091-0.056 0.609-0.322 0.627-0.322 0.005 0 0.080-0.034 0.165-0.074s0.16-0.074 0.165-0.074c0.005 0 0.028-0.009 0.051-0.020 0.069-0.031 0.36-0.137 0.463-0.168 0.053-0.015 0.175-0.051 0.271-0.083 0.097-0.030 0.184-0.054 0.194-0.054 0.008 0 0.043-0.009 0.079-0.022 0.034-0.011 0.091-0.026 0.126-0.033 0.034-0.005 0.12-0.024 0.191-0.039 0.070-0.016 0.162-0.035 0.203-0.043 0.041-0.007 0.106-0.019 0.142-0.026 0.221-0.043 0.406-0.066 0.609-0.080 0.219-0.015 1.16-0.015 1.387 0z"></path>
<path d="M11.258 10.458c-0.005 0.005-0.060 0.015-0.12 0.020-0.166 0.018-0.238 0.033-0.336 0.070-0.049 0.019-0.137 0.050-0.196 0.070-0.060 0.019-0.149 0.057-0.199 0.083s-0.097 0.046-0.107 0.046c-0.008 0-0.073 0.027-0.143 0.061s-0.131 0.061-0.137 0.061c-0.005 0-0.069 0.028-0.142 0.064-0.129 0.062-0.134 0.064-0.194 0.047-0.115-0.031-0.448-0.009-0.55 0.037-0.031 0.014-0.084 0.033-0.115 0.041-0.143 0.037-0.18 0.050-0.288 0.102-0.064 0.030-0.141 0.072-0.171 0.092-0.031 0.020-0.064 0.038-0.072 0.038s-0.015 0.004-0.015 0.011c0 0.005-0.030 0.030-0.068 0.054-0.111 0.073-0.334 0.298-0.432 0.436-0.095 0.133-0.16 0.26-0.189 0.365-0.009 0.034-0.023 0.080-0.030 0.103s-0.012 0.194-0.012 0.379c0.001 0.326 0.012 0.458 0.054 0.628 0.008 0.034 0.020 0.095 0.027 0.135 0.020 0.135 0.069 0.298 0.156 0.521 0.139 0.363 0.184 0.467 0.261 0.621 0.111 0.225 0.198 0.319 0.361 0.399 0.103 0.051 0.122 0.056 0.222 0.056 0.116 0 0.204-0.028 0.253-0.083 0.014-0.015 0.041-0.026 0.068-0.026 0.041 0 0.046 0.005 0.053 0.043 0.018 0.106 0.034 0.298 0.034 0.41 0 0.111 0.016 0.213 0.054 0.348 0.007 0.028 0.019 0.072 0.026 0.095 0.007 0.024 0.022 0.072 0.034 0.106 0.041 0.115 0.054 0.108-0.234 0.108h-0.254l-0.064 0.055c-0.035 0.031-0.111 0.093-0.169 0.139-0.058 0.045-0.184 0.146-0.279 0.225-0.096 0.078-0.23 0.188-0.299 0.244-0.152 0.123-0.405 0.332-0.6 0.49-0.079 0.065-0.202 0.165-0.275 0.222-0.077 0.061-0.137 0.119-0.146 0.142-0.012 0.028-0.015 0.077-0.008 0.165 0.005 0.069 0.015 0.444 0.022 0.835 0.018 1.030 0.038 2.055 0.056 2.782 0.008 0.349 0.019 0.865 0.023 1.144 0.007 0.393 0.014 0.514 0.028 0.54l0.018 0.032 9.394-0.016 0.096-0.099-0.009-0.143c-0.005-0.080-0.016-0.347-0.023-0.592-0.007-0.246-0.019-0.639-0.027-0.873-0.007-0.234-0.019-0.619-0.026-0.853-0.027-0.839-0.041-1.286-0.054-1.719-0.008-0.242-0.019-0.619-0.024-0.837l-0.009-0.398-0.070-0.062c-0.038-0.035-0.141-0.127-0.227-0.206s-0.202-0.181-0.257-0.23c-0.056-0.049-0.26-0.231-0.456-0.407-0.736-0.662-0.638-0.582-0.739-0.596-0.050-0.005-0.199-0.011-0.33-0.012h-0.241v-0.049c0-0.033 0.012-0.065 0.038-0.099 0.049-0.064 0.116-0.196 0.135-0.269 0.009-0.031 0.023-0.083 0.031-0.115 0.009-0.031 0.026-0.084 0.037-0.118 0.015-0.042 0.022-0.118 0.022-0.244l0.001-0.183 0.034-0.004c0.023-0.003 0.057 0.012 0.096 0.041 0.118 0.088 0.2 0.119 0.311 0.119 0.096 0 0.135-0.016 0.3-0.127 0.074-0.049 0.139-0.089 0.146-0.089 0.031 0 0.273-0.254 0.329-0.344 0.123-0.204 0.15-0.342 0.172-0.888 0.008-0.175 0.016-0.367 0.020-0.426 0.008-0.112-0.014-0.416-0.035-0.487-0.131-0.445-0.279-0.792-0.391-0.916-0.035-0.039-0.122-0.142-0.195-0.229-0.133-0.161-0.256-0.272-0.389-0.352-0.041-0.024-0.108-0.069-0.149-0.1-0.041-0.030-0.123-0.079-0.183-0.108s-0.111-0.057-0.115-0.061c-0.009-0.009-0.062-0.034-0.135-0.061-0.111-0.042-0.141-0.051-0.223-0.062-0.045-0.005-0.11-0.015-0.143-0.019-0.038-0.007-0.083-0.004-0.112 0.007-0.026 0.008-0.12 0.016-0.207 0.016-0.157 0.001-0.164 0-0.349-0.064-0.104-0.037-0.219-0.070-0.257-0.077-0.037-0.007-0.096-0.018-0.131-0.024-0.037-0.008-0.093-0.019-0.129-0.026-0.061-0.012-0.099-0.022-0.241-0.057-0.030-0.007-0.093-0.019-0.142-0.026s-0.118-0.019-0.156-0.027c-0.142-0.033-0.866-0.069-0.891-0.046zM11.756 10.641c0.16 0.018 0.277 0.033 0.399 0.053 0.049 0.008 0.127 0.020 0.176 0.027 0.1 0.014 0.196 0.033 0.284 0.054 0.034 0.008 0.088 0.020 0.122 0.026s0.088 0.020 0.122 0.033c0.034 0.012 0.073 0.023 0.088 0.023 0.016 0 0.034 0.005 0.041 0.012 0.008 0.005 0.045 0.018 0.081 0.027 0.123 0.030 0.175 0.045 0.244 0.069 0.138 0.050 0.173 0.057 0.256 0.050 0.099-0.008 0.426 0.009 0.502 0.028 0.099 0.023 0.269 0.099 0.338 0.149 0.038 0.028 0.095 0.069 0.129 0.091s0.097 0.068 0.142 0.102c0.045 0.035 0.104 0.077 0.131 0.093 0.095 0.057 0.425 0.459 0.499 0.608 0.024 0.050 0.068 0.127 0.095 0.172 0.068 0.115 0.097 0.213 0.148 0.494 0.027 0.153 0.031 0.321 0.014 0.724-0.033 0.791-0.026 0.728-0.095 0.865-0.053 0.106-0.076 0.133-0.19 0.236-0.070 0.062-0.138 0.118-0.149 0.122s-0.054 0.033-0.095 0.062c-0.073 0.053-0.076 0.054-0.19 0.054-0.069 0-0.127-0.007-0.146-0.016-0.047-0.027-0.179-0.211-0.242-0.341-0.068-0.138-0.139-0.345-0.139-0.405 0-0.023-0.008-0.046-0.019-0.050-0.014-0.005-0.020-0.056-0.027-0.198-0.012-0.218-0.037-0.294-0.107-0.33-0.038-0.020-0.043-0.020-0.076 0.005-0.035 0.026-0.035 0.026-0.034 0.214 0.001 0.103 0.009 0.222 0.018 0.263 0.009 0.041 0.022 0.108 0.028 0.149s0.018 0.1 0.026 0.131c0.022 0.083 0.038 0.153 0.049 0.207 0.007 0.026 0.020 0.065 0.031 0.088 0.027 0.053 0.043 0.122 0.060 0.257 0.022 0.19 0.027 0.402 0.011 0.46-0.051 0.176-0.077 0.25-0.111 0.311-0.022 0.037-0.061 0.114-0.088 0.169-0.084 0.171-0.162 0.273-0.397 0.518-0.123 0.129-0.267 0.242-0.365 0.29-0.034 0.016-0.122 0.050-0.196 0.073-0.134 0.043-0.137 0.045-0.426 0.045-0.268 0.001-0.298-0.001-0.382-0.030-0.050-0.016-0.106-0.030-0.125-0.030-0.018 0-0.056-0.012-0.085-0.026-0.028-0.015-0.085-0.042-0.126-0.061-0.108-0.050-0.229-0.173-0.213-0.217 0.005-0.012 0.031-0.032 0.061-0.047 0.107-0.054 0.253-0.215 0.31-0.34 0.062-0.139 0.074-0.187 0.058-0.24-0.033-0.104-0.099-0.222-0.152-0.267-0.050-0.043-0.062-0.046-0.21-0.062-0.18-0.020-0.317-0.012-0.424 0.022-0.108 0.035-0.214 0.145-0.254 0.264-0.037 0.111-0.037 0.129-0.001 0.241 0.047 0.149 0.091 0.231 0.166 0.311 0.080 0.084 0.093 0.111 0.081 0.158-0.009 0.037-0.115 0.116-0.183 0.138-0.229 0.072-0.263 0.076-0.615 0.077-0.384 0-0.374 0.003-0.597-0.116-0.175-0.093-0.307-0.218-0.378-0.355-0.028-0.053-0.058-0.107-0.068-0.118-0.031-0.037-0.11-0.195-0.127-0.257-0.009-0.034-0.022-0.080-0.028-0.102-0.034-0.111-0.026-0.597 0.015-0.826 0.027-0.154 0.030-0.376 0.007-0.433-0.018-0.041-0.022-0.108-0.022-0.352v-0.302l-0.042-0.035c-0.053-0.045-0.069-0.045-0.118 0.004s-0.057 0.092-0.057 0.313c-0.001 0.093-0.008 0.199-0.015 0.237-0.007 0.037-0.019 0.095-0.026 0.129-0.041 0.213-0.13 0.374-0.233 0.426-0.024 0.012-0.079 0.020-0.13 0.020-0.095 0-0.099-0.003-0.214-0.143-0.046-0.056-0.154-0.253-0.154-0.282 0-0.008-0.019-0.051-0.041-0.096-0.023-0.045-0.041-0.085-0.041-0.092 0-0.005-0.018-0.049-0.039-0.095s-0.050-0.114-0.062-0.15c-0.012-0.037-0.035-0.097-0.053-0.135-0.054-0.12-0.102-0.273-0.123-0.401-0.014-0.085-0.033-0.168-0.049-0.23-0.022-0.079-0.023-0.722-0.001-0.819 0.008-0.038 0.019-0.087 0.023-0.108 0.005-0.023 0.041-0.104 0.079-0.181 0.058-0.118 0.092-0.165 0.206-0.287 0.074-0.081 0.179-0.181 0.23-0.222 0.099-0.079 0.481-0.276 0.609-0.315 0.083-0.024 0.478-0.026 0.524-0.001 0.041 0.022 0.172 0.004 0.207-0.027 0.015-0.014 0.085-0.054 0.156-0.091 0.070-0.035 0.138-0.073 0.149-0.081 0.027-0.022 0.311-0.168 0.328-0.168 0.007 0 0.050-0.018 0.096-0.039 0.119-0.057 0.367-0.139 0.463-0.153 0.222-0.034 0.487-0.043 0.677-0.023zM11.797 15.56c0.127 0.038 0.172 0.112 0.142 0.237-0.020 0.087-0.093 0.169-0.184 0.211-0.13 0.060-0.231 0.039-0.324-0.066-0.057-0.065-0.061-0.074-0.060-0.145 0.001-0.116 0.041-0.198 0.115-0.237 0.051-0.027 0.217-0.027 0.31 0zM14.707 16.208c0.028 0.019 0.294 0.248 0.453 0.393 0.034 0.031 0.173 0.153 0.31 0.272 0.374 0.326 0.556 0.495 0.556 0.516 0 0.039-0.056 0.046-0.401 0.046h-0.349l-0.115-0.114c-0.096-0.093-0.139-0.123-0.248-0.176-0.072-0.034-0.139-0.062-0.15-0.062-0.037 0-0.111-0.085-0.13-0.149-0.022-0.073-0.077-0.219-0.107-0.284-0.039-0.084-0.165-0.259-0.264-0.363-0.057-0.062-0.064-0.074-0.047-0.093 0.015-0.019 0.046-0.020 0.238-0.014 0.165 0.005 0.229 0.014 0.253 0.028zM9.398 16.238c0.070 0.007 0.104 0.015 0.104 0.027 0 0.009-0.027 0.049-0.062 0.089-0.068 0.078-0.16 0.244-0.208 0.37-0.037 0.095-0.057 0.115-0.116 0.115-0.024 0-0.058 0.005-0.076 0.012s-0.068 0.019-0.112 0.028c-0.045 0.008-0.15 0.049-0.234 0.089-0.119 0.058-0.173 0.095-0.249 0.165-0.11 0.104-0.2 0.226-0.234 0.317-0.012 0.035-0.034 0.065-0.047 0.069-0.034 0.008-0.742-0.024-0.753-0.035-0.022-0.022 0.016-0.060 0.306-0.3 0.068-0.057 0.165-0.138 0.319-0.267 0.051-0.043 0.158-0.131 0.237-0.196 0.269-0.222 0.436-0.363 0.517-0.436l0.081-0.073 0.211 0.008c0.116 0.005 0.259 0.014 0.317 0.018zM14.056 16.46c0.061 0.046 0.135 0.115 0.165 0.153 0.069 0.089 0.154 0.23 0.154 0.256 0 0.011 0.005 0.024 0.012 0.031 0.007 0.008 0.015 0.038 0.018 0.068l0.004 0.054-0.095 0.009c-0.221 0.022-0.353 0.064-0.548 0.173-0.095 0.054-0.272 0.229-0.314 0.309-0.062 0.12 0.088 0.111-1.637 0.111-1.167 0-1.527-0.004-1.539-0.016-0.009-0.009-0.016-0.031-0.016-0.049 0-0.047-0.079-0.271-0.112-0.319-0.066-0.096-0.234-0.254-0.305-0.287-0.039-0.018-0.076-0.032-0.081-0.032-0.007 0-0.037-0.012-0.068-0.027-0.030-0.015-0.072-0.027-0.092-0.027-0.060 0-0.127-0.030-0.127-0.055 0-0.012 0.038-0.081 0.085-0.152 0.047-0.069 0.099-0.149 0.115-0.176 0.016-0.028 0.035-0.050 0.043-0.050s0.045 0.024 0.081 0.053c0.070 0.055 0.325 0.191 0.36 0.191 0.011 0 0.030 0.005 0.043 0.012 0.066 0.034 0.137 0.042 0.347 0.042 0.125 0 0.252-0.005 0.283-0.012s0.093-0.019 0.138-0.028c0.045-0.008 0.127-0.030 0.183-0.049s0.12-0.039 0.142-0.045c0.054-0.014 0.141-0.054 0.181-0.085 0.042-0.031 0.095-0.031 0.137 0.003 0.019 0.015 0.038 0.027 0.043 0.027s0.037 0.018 0.069 0.041c0.087 0.058 0.249 0.133 0.321 0.148 0.034 0.007 0.095 0.022 0.135 0.032 0.171 0.046 0.213 0.050 0.529 0.050h0.326l0.158-0.054c0.244-0.083 0.355-0.146 0.482-0.277 0.104-0.108 0.122-0.118 0.2-0.11 0.054 0.005 0.085 0.022 0.177 0.089zM9.684 17.134c0.181 0.093 0.313 0.252 0.337 0.409 0.019 0.122 0.027 0.448 0.011 0.501-0.007 0.026-0.016 0.064-0.020 0.083-0.004 0.020-0.027 0.065-0.051 0.102-0.038 0.057-0.051 0.066-0.095 0.070-0.066 0.005-0.087-0.007-0.123-0.078-0.016-0.032-0.038-0.062-0.047-0.065-0.023-0.007-0.111 0.087-0.111 0.119 0 0.042-0.058 0.137-0.111 0.177-0.073 0.058-0.135 0.080-0.23 0.080-0.148-0.001-0.183-0.016-0.277-0.114-0.049-0.051-0.096-0.089-0.111-0.089s-0.058 0.030-0.095 0.068c-0.060 0.060-0.074 0.068-0.123 0.068-0.056 0-0.134-0.039-0.179-0.089-0.097-0.112-0.134-0.311-0.106-0.586 0.012-0.115 0.024-0.175 0.049-0.222 0.135-0.272 0.364-0.452 0.612-0.483 0.050-0.007 0.2-0.008 0.334-0.004l0.244 0.007 0.093 0.049zM14.684 17.289c0.223 0.091 0.277 0.12 0.361 0.206 0.064 0.064 0.114 0.148 0.156 0.265 0.009 0.026 0.023 0.053 0.030 0.060 0.005 0.008 0.011 0.095 0.011 0.195 0 0.157-0.004 0.194-0.034 0.283-0.019 0.055-0.043 0.119-0.054 0.141-0.023 0.043-0.085 0.066-0.149 0.053-0.034-0.007-0.042-0.015-0.045-0.050-0.003-0.023-0.016-0.053-0.030-0.065-0.024-0.022-0.028-0.022-0.069 0.008-0.023 0.016-0.054 0.057-0.069 0.088-0.045 0.103-0.145 0.154-0.3 0.154-0.097 0-0.16-0.023-0.184-0.066-0.007-0.015-0.014-0.060-0.014-0.1 0-0.060-0.005-0.078-0.033-0.103l-0.034-0.031-0.042 0.030c-0.023 0.016-0.065 0.062-0.095 0.102-0.028 0.039-0.080 0.095-0.114 0.122-0.061 0.049-0.064 0.050-0.187 0.051-0.143 0.001-0.173-0.009-0.219-0.083-0.072-0.114-0.089-0.383-0.039-0.571 0.012-0.041 0.026-0.102 0.031-0.135s0.020-0.095 0.033-0.135c0.056-0.181 0.118-0.249 0.303-0.325 0.057-0.024 0.123-0.051 0.145-0.061 0.065-0.027 0.143-0.047 0.21-0.053 0.102-0.008 0.391 0.005 0.43 0.022zM16.222 17.681c0.003 0.018 0.016 0.37 0.028 0.782s0.037 1.207 0.054 1.767c0.077 2.405 0.080 2.526 0.060 2.539-0.011 0.007-1.937 0.012-4.513 0.012h-4.494l-0.004-0.302c-0.001-0.165-0.022-1.224-0.043-2.351-0.023-1.128-0.041-2.117-0.041-2.198v-0.148l0.2 0.009c0.11 0.004 0.295 0.012 0.412 0.016l0.213 0.009 0.014 0.042c0.008 0.023 0.020 0.093 0.030 0.157 0.020 0.149 0.065 0.267 0.149 0.395 0.074 0.112 0.173 0.199 0.261 0.227 0.069 0.022 0.183 0.009 0.249-0.027l0.051-0.028 0.1 0.058 0.102 0.058h0.196c0.226 0 0.263-0.011 0.357-0.111 0.033-0.034 0.072-0.061 0.091-0.062 0.018-0.001 0.092 0.005 0.164 0.016 0.122 0.016 0.134 0.016 0.181-0.007 0.088-0.043 0.161-0.149 0.208-0.299 0.023-0.073 0.047-0.176 0.057-0.227 0.008-0.053 0.019-0.099 0.023-0.103 0.004-0.005 0.674-0.014 1.489-0.019l1.481-0.009-0.011 0.092c-0.007 0.051-0.012 0.118-0.014 0.148s-0.007 0.083-0.012 0.116c-0.008 0.047-0.004 0.087 0.018 0.161 0.015 0.055 0.033 0.103 0.039 0.107s0.028 0.041 0.049 0.080c0.060 0.118 0.196 0.202 0.349 0.214 0.141 0.012 0.284-0.019 0.365-0.078 0.019-0.014 0.035-0.009 0.091 0.020 0.070 0.039 0.234 0.077 0.326 0.077 0.074 0 0.254-0.060 0.329-0.11 0.057-0.038 0.068-0.041 0.107-0.027 0.126 0.045 0.265 0 0.384-0.123 0.092-0.095 0.118-0.15 0.154-0.328 0.028-0.146 0.028-0.149 0.005-0.336-0.012-0.103-0.020-0.189-0.018-0.192s0.164-0.015 0.357-0.026c0.194-0.011 0.363-0.020 0.375-0.022 0.015 0 0.026 0.011 0.030 0.028z"></path>
<path d="M13.128 14.030c-0.031 0.022-0.064 0.064-0.091 0.116-0.079 0.158-0.047 0.311 0.083 0.405 0.031 0.023 0.073 0.041 0.093 0.041s0.053 0.007 0.070 0.015c0.066 0.030 0.215-0.076 0.261-0.185 0.045-0.108 0.005-0.272-0.081-0.336-0.127-0.096-0.248-0.115-0.336-0.056z"></path>
<path d="M10.3 14.146c-0.080 0.080-0.093 0.111-0.093 0.222 0 0.069 0.007 0.095 0.039 0.146 0.046 0.072 0.104 0.12 0.195 0.158 0.077 0.034 0.125 0.035 0.187 0.009 0.089-0.038 0.137-0.118 0.143-0.245 0.004-0.087 0.001-0.103-0.039-0.183-0.065-0.126-0.141-0.176-0.271-0.176h-0.093l-0.068 0.068zM10.423 14.254c0.027 0.027 0.035 0.088 0.016 0.116-0.015 0.022-0.065 0.046-0.097 0.046-0.015 0-0.043-0.015-0.062-0.034-0.041-0.041-0.035-0.079 0.016-0.126 0.042-0.037 0.092-0.038 0.127-0.003z"></path>
<path d="M11.821 18.577c-0.139 0.046-0.238 0.133-0.3 0.265-0.030 0.062-0.035 0.093-0.035 0.189 0 0.103 0.005 0.126 0.045 0.206 0.051 0.104 0.125 0.176 0.231 0.226 0.064 0.030 0.095 0.035 0.191 0.035s0.127-0.005 0.191-0.035c0.107-0.050 0.18-0.122 0.231-0.226 0.039-0.080 0.045-0.103 0.045-0.206 0-0.096-0.005-0.127-0.035-0.191-0.079-0.168-0.229-0.269-0.409-0.277-0.058-0.004-0.12 0.003-0.154 0.014z"></path>
<path d="M7.75 18.645c-0.123 0.058-0.196 0.171-0.196 0.306 0 0.188 0.15 0.338 0.338 0.338 0.23 0 0.39-0.222 0.322-0.448-0.054-0.183-0.287-0.28-0.464-0.196z"></path>
<path d="M10.085 19.131c-0.164 0.047-0.273 0.139-0.348 0.291-0.049 0.097-0.051 0.11-0.051 0.233s0.003 0.135 0.050 0.233c0.061 0.123 0.139 0.199 0.265 0.259 0.083 0.039 0.103 0.043 0.219 0.043s0.137-0.004 0.219-0.043c0.123-0.058 0.204-0.137 0.261-0.253 0.173-0.349-0.062-0.754-0.448-0.774-0.065-0.003-0.131 0.001-0.168 0.012z"></path>
<path d="M15.283 19.307c-0.164 0.047-0.273 0.139-0.348 0.291-0.049 0.097-0.051 0.11-0.051 0.233s0.003 0.135 0.050 0.233c0.061 0.123 0.139 0.199 0.265 0.259 0.083 0.039 0.103 0.043 0.219 0.043s0.137-0.004 0.219-0.043c0.123-0.058 0.204-0.137 0.261-0.253 0.173-0.349-0.062-0.754-0.448-0.774-0.065-0.003-0.131 0.001-0.168 0.012z"></path>
<path d="M13.22 19.628c-0.088 0.023-0.21 0.096-0.271 0.164-0.153 0.171-0.184 0.398-0.083 0.602 0.057 0.116 0.138 0.195 0.261 0.253 0.083 0.039 0.103 0.043 0.219 0.043s0.137-0.004 0.219-0.043c0.123-0.058 0.204-0.137 0.261-0.253 0.135-0.273 0.030-0.585-0.242-0.72-0.083-0.041-0.116-0.049-0.206-0.053-0.060-0.004-0.13 0-0.16 0.007z"></path>
<path d="M11.506 19.756c-0.296 0.081-0.527 0.317-0.604 0.616-0.031 0.123-0.020 0.365 0.022 0.486 0.037 0.103 0.142 0.264 0.218 0.333 0.085 0.077 0.208 0.15 0.307 0.185 0.077 0.027 0.118 0.031 0.273 0.031 0.219 0 0.31-0.026 0.466-0.13 0.158-0.106 0.276-0.256 0.336-0.429 0.027-0.077 0.031-0.118 0.031-0.273s-0.004-0.196-0.031-0.273c-0.035-0.099-0.108-0.222-0.185-0.307-0.069-0.076-0.23-0.181-0.333-0.218-0.114-0.041-0.386-0.051-0.499-0.020z"></path>
<path d="M8.332 19.809c-0.123 0.058-0.196 0.171-0.196 0.306 0 0.188 0.15 0.338 0.338 0.338 0.187 0 0.337-0.15 0.338-0.338 0-0.246-0.259-0.412-0.481-0.306z"></path>
<path d="M14.206 20.405c-0.123 0.058-0.196 0.171-0.196 0.306 0 0.188 0.15 0.338 0.338 0.338 0.187 0 0.337-0.15 0.338-0.338 0-0.246-0.259-0.412-0.481-0.306z"></path>
<path d="M15.151 21c-0.139 0.046-0.238 0.133-0.3 0.265-0.030 0.062-0.035 0.093-0.035 0.189 0 0.103 0.005 0.126 0.045 0.206 0.051 0.104 0.125 0.176 0.231 0.226 0.064 0.030 0.095 0.035 0.191 0.035s0.127-0.005 0.191-0.035c0.107-0.050 0.18-0.122 0.231-0.226 0.039-0.080 0.045-0.103 0.045-0.206 0-0.096-0.005-0.127-0.035-0.191-0.079-0.168-0.229-0.269-0.409-0.277-0.058-0.004-0.12 0.003-0.154 0.014z"></path>
<path d="M8.034 21.122c-0.123 0.058-0.196 0.171-0.196 0.306 0 0.188 0.15 0.338 0.338 0.338 0.187 0 0.337-0.15 0.338-0.338 0-0.246-0.259-0.412-0.481-0.306z"></path>
<path d="M13.297 21.285c-0.139 0.046-0.238 0.133-0.3 0.265-0.030 0.062-0.035 0.093-0.035 0.189 0 0.103 0.005 0.126 0.045 0.206 0.051 0.104 0.125 0.176 0.231 0.226 0.064 0.030 0.095 0.035 0.191 0.035s0.127-0.005 0.191-0.035c0.107-0.050 0.18-0.122 0.231-0.226 0.039-0.080 0.045-0.103 0.045-0.206 0-0.096-0.005-0.127-0.035-0.191-0.079-0.168-0.229-0.269-0.409-0.277-0.058-0.004-0.12 0.003-0.154 0.014z"></path>
<path d="M9.601 21.298c-0.139 0.046-0.238 0.133-0.3 0.265-0.030 0.062-0.035 0.093-0.035 0.189 0 0.103 0.005 0.126 0.045 0.206 0.051 0.104 0.125 0.176 0.231 0.226 0.064 0.030 0.095 0.035 0.191 0.035s0.127-0.005 0.191-0.035c0.107-0.050 0.18-0.122 0.231-0.226 0.039-0.080 0.045-0.103 0.045-0.206 0-0.096-0.005-0.127-0.035-0.191-0.079-0.168-0.229-0.269-0.409-0.277-0.058-0.004-0.12 0.003-0.154 0.014z"></path>
<path d="M11.323 21.758c-0.123 0.058-0.196 0.171-0.196 0.306 0 0.188 0.15 0.338 0.338 0.338 0.187 0 0.337-0.15 0.338-0.338 0-0.246-0.259-0.412-0.481-0.306z"></path>
</svg>
